<svg version="1.1" xmlns="http://www.w3.org/2000/svg" viewBox="0 0 811 737" width="811" height="737" filter="invert(93%) hue-rotate(180deg)">
  <!-- svg-source:excalidraw -->
  
  <defs>
    <style>
      @font-face {
        font-family: "Virgil";
        src: url("https://excalidraw.com/Virgil.woff2");
      }
      @font-face {
        font-family: "Cascadia";
        src: url("https://excalidraw.com/Cascadia.woff2");
      }
    </style>
  </defs>
  <rect x="0" y="0" width="811" height="737" fill="#ffffff"></rect><g stroke-linecap="round" transform="translate(10 229) rotate(0 111.5 40.5)"><path d="M-0.27 -1.58 C67.93 0.96, 133.41 -1.26, 222.77 1.49 M0.44 -0.26 C61.9 0.82, 124.74 0.74, 222.24 0.61 M223.24 -0.51 C223.72 27.22, 223.48 51.14, 221.87 82.98 M222.69 -0.1 C222.74 28.24, 223.32 56.94, 223.19 81.48 M223.35 79.82 C154.01 81.71, 85.38 82.18, 0.92 79.34 M222.2 80.66 C168.26 81.73, 113.1 82.13, 0.58 80.84 M-1.96 81.16 C-1.07 57.57, -0.88 30.34, 0.89 -1.38 M-0.58 81.53 C-0.21 51.56, 0.53 20.23, 0.68 -0.06" stroke="#000000" stroke-width="1" fill="none"></path></g><g transform="translate(60 244.91304347826087) rotate(0 58 22)"><text x="0" y="31" font-family="Virgil, Segoe UI Emoji" font-size="33.91304347826087px" fill="#000000" text-anchor="start" style="white-space: pre;" direction="ltr">Service</text></g><g stroke-linecap="round" transform="translate(85 352) rotate(0 32 19.5)"><path d="M-0.89 -1.05 C17.23 0.13, 33.49 -0.66, 65.25 -0.38 M0.82 0.75 C20.02 -1, 39.15 -0.61, 63.07 -0.71 M65.81 -1.05 C63.6 13.54, 63.21 27.49, 65.28 39.09 M63.04 -0.97 C63.79 8.83, 63.7 17.69, 64.44 39.83 M63.53 38.9 C49.84 39.21, 33.84 38.05, 1.13 39.25 M64.56 38.18 C39.52 38.93, 16.29 38.48, -0.51 38.59 M-1.45 40.49 C0.02 26.39, -2.14 15.12, 1.41 0.22 M0.03 39.76 C-1.2 23.88, 0.58 10, 0.41 -0.52" stroke="#000000" stroke-width="1" fill="none"></path></g><g stroke-linecap="round" transform="translate(28 427.5) rotate(0 32 19.5)"><path d="M0.81 -1.92 C17.54 -0.81, 39.75 -0.98, 65.62 0.88 M-0.72 -0.24 C24.44 0.83, 49.32 0.44, 63.76 0.56 M65.45 1.13 C62.65 10.89, 63.22 24.28, 62.03 37.98 M63.58 -0.72 C64.74 10.23, 63.51 19.27, 63.71 39.71 M62.56 39.06 C45.62 37.64, 23.51 41.2, 1.11 39.81 M63.73 38.29 C48.12 39.98, 32.71 38.56, 0.93 39.41 M-0.4 38.93 C-0.31 29.58, 1.2 20.51, 1.65 -1.18 M-0.46 39.94 C-0.95 29.92, -0.77 22.85, 0.28 -0.35" stroke="#000000" stroke-width="1" fill="none"></path></g><g stroke-linecap="round" transform="translate(138 428.5) rotate(0 32 19.5)"><path d="M1.47 -1.44 C23.78 1.01, 45.61 -1.2, 65.73 1.11 M0.15 -0.27 C21.09 -0.04, 44.47 0.44, 63.46 0.93 M63.94 -0.4 C63.73 12.69, 64.11 27.5, 64.98 40.65 M64.43 -0.46 C64.6 8.47, 62.85 18.05, 64.39 39.28 M63.7 37.4 C48.36 41.02, 30.7 37.39, -1.53 40.48 M63.73 39.21 C47.12 38.79, 29.9 38.07, 0.31 39.15 M-1.29 39.4 C-1.73 28.48, -0.44 16.81, 1.24 0.72 M0.04 39.22 C0.56 30.68, -1.08 20.91, -0.29 -0.6" stroke="#000000" stroke-width="1" fill="none"></path></g><g stroke-linecap="round" transform="translate(20 330) rotate(0 97.5 80.5)"><path d="M1.34 1.82 C65.3 -0.25, 127.73 3.04, 194.35 -1.1 M0.24 0.37 C40.74 -0.75, 81.51 -0.26, 194.64 0.14 M193.33 -0.23 C193.58 52.13, 195.2 108.2, 193.45 161.66 M195.69 0.36 C194.11 44.23, 194.77 89.3, 195.39 160.8 M193.11 159.53 C133.13 163.31, 69.3 161.67, -0.31 161.25 M195.84 160.4 C129.77 161.77, 65.09 160.68, -0.67 161.44 M-1.09 161.9 C0.65 98.61, -0.13 32.75, 1.97 0.59 M0.92 161.67 C-1.36 123.56, -1.5 87.22, 0.92 -0.6" stroke="#000000" stroke-width="1" fill="none"></path></g><g stroke-linecap="round"><g transform="translate(54 426) rotate(0 30.38689115829763 -18.234249098682767)"><path d="M-0.8 0.05 C9.27 -5.55, 51.25 -28.71, 61.57 -34.6 M0.98 -0.97 C10.76 -6.85, 49.96 -30.99, 60.4 -36.52" stroke="#000000" stroke-width="1" fill="none"></path></g></g><g stroke-linecap="round"><g transform="translate(172 428) rotate(0 -27.102519824709702 -18.136225453848)"><path d="M-0.72 -1.02 C-9.75 -7.06, -45.6 -31.35, -54.58 -37.33 M1.1 1.06 C-8.01 -4.71, -45.93 -29.87, -55.31 -35.97" stroke="#000000" stroke-width="1" fill="none"></path></g></g><g transform="translate(46 502) rotate(0 68.5 13)"><text x="0" y="18" font-family="Virgil, Segoe UI Emoji" font-size="20px" fill="#000000" text-anchor="start" style="white-space: pre;" direction="ltr">Internal Tree</text></g><g stroke-linecap="round" transform="translate(396 228) rotate(0 96 42)"><path d="M0.27 -1.22 C60.35 -1.3, 122.35 -0.92, 192.4 -1.15 M-0.41 0.02 C45.51 -0.18, 89.95 -1.35, 192.65 0.92 M193.72 1.75 C191.79 20.39, 191.35 42.84, 193.68 83.94 M191.21 -0.7 C192.55 27.35, 192.27 53.36, 191.49 83.87 M190.01 85.11 C135.01 82.6, 77.27 82.13, -0.72 82.53 M191.63 83.7 C119.84 82.41, 48.92 83.08, 0.08 83.94 M1.65 84.13 C1.37 57.26, 0.82 33.34, 0.85 -1.53 M0.41 83.69 C-0.27 58.57, -0.21 34.7, 0.64 0.36" stroke="#000000" stroke-width="1" fill="none"></path></g><g transform="translate(401 257) rotate(0 91 13)"><text x="91" y="18" font-family="Virgil, Segoe UI Emoji" font-size="20px" fill="#000000" text-anchor="middle" style="white-space: pre;" direction="ltr">Redis</text></g><g stroke-linecap="round" transform="translate(462.5 352) rotate(0 32 19.5)"><path d="M-1.98 1.63 C14.51 -1.97, 27.11 -1.52, 65.45 -0.81 M-0.87 -0.98 C24.37 -0.61, 47.39 0.81, 64.78 -0.95 M62.1 1.43 C65.24 9.81, 64.4 18.96, 64.37 37.28 M64.88 -0.28 C63.69 8.81, 64.37 16.39, 64.64 38.56 M63.12 39.72 C42.44 41.21, 22.57 37.59, 1.88 39.63 M63.77 38.5 C48.05 40.23, 32.08 39.51, 0.89 39.55 M-1.84 38.25 C1.9 29.21, 2.08 19.04, 0.53 -1.73 M-0.37 39.77 C0.08 27.61, 1.1 18.45, 0.7 0.99" stroke="#000000" stroke-width="1" fill="none"></path></g><g stroke-linecap="round" transform="translate(405.5 427.5) rotate(0 32 19.5)"><path d="M1.63 1.16 C18.47 1.05, 39.36 2.08, 63.19 1.51 M-0.98 0.35 C24.5 -0.08, 51.09 1.34, 63.05 -0.6 M65.43 1.2 C64.23 12.45, 64.03 24.54, 62.28 37.38 M63.72 -0.63 C64.33 15, 63.36 30.53, 63.56 39.1 M64.72 37.3 C44.3 36.99, 19.36 40.6, 0.63 38.12 M63.5 39.44 C45.12 39.72, 24.8 39.74, 0.55 38.68 M-0.75 40.7 C1.05 31.13, 1.34 19.99, -1.73 -0.6 M0.77 38.84 C-1.01 30.56, 0.35 21.08, 0.99 -0.24" stroke="#000000" stroke-width="1" fill="none"></path></g><g stroke-linecap="round" transform="translate(515.5 428.5) rotate(0 32 19.5)"><path d="M1.16 -1.97 C19.59 -2.05, 39.8 -1.33, 65.51 1.87 M0.35 -0.67 C17.97 1.38, 38.02 -0.32, 63.4 0.1 M65.2 0.46 C63.99 9.63, 64 17.03, 62.38 40.67 M63.37 0.26 C64.39 11.66, 64.98 24.3, 64.1 39.33 M62.3 40.62 C37.23 37.23, 15.79 39.86, -0.88 39.12 M64.44 39.72 C40.53 38.68, 16.2 39.23, -0.32 38.5 M1.7 39.67 C2.25 32.04, 0.89 21.43, -0.6 -1.23 M-0.16 38.13 C1.01 26.41, 0.84 13.82, -0.24 -0.92" stroke="#000000" stroke-width="1" fill="none"></path></g><g stroke-linecap="round" transform="translate(397.5 330) rotate(0 97.5 80.5)"><path d="M-1.97 0.41 C37.64 0.31, 77.51 0.37, 196.87 -0.18 M-0.67 -0.64 C42.2 0.11, 81.96 -1.28, 195.1 -0.6 M195.46 0.36 C196.41 33.4, 194.43 64.44, 196.67 161.34 M195.26 0.05 C193.84 63.14, 194.11 125.09, 195.33 161.91 M196.62 159.27 C143.06 161.22, 95.74 158.46, 0.12 162.61 M195.72 161.87 C141.05 162.75, 87.67 161.54, -0.5 160.03 M0.67 162.89 C1.56 128.05, -1.13 93.43, -1.23 0.71 M-0.87 161.86 C-0.75 119.39, -0.25 76.15, -0.92 -0.82" stroke="#000000" stroke-width="1" fill="none"></path></g><g stroke-linecap="round"><g transform="translate(431.5 426) rotate(0 31.065991654479888 -17.77684660189786)"><path d="M-1.18 0.25 C8.83 -5.56, 50.64 -28.41, 61.08 -34.13 M0.4 -0.67 C10.7 -6.87, 53.3 -29.92, 63.32 -35.8" stroke="#000000" stroke-width="1" fill="none"></path></g></g><g stroke-linecap="round"><g transform="translate(549.5 428) rotate(0 -27.189581959322084 -18.13467115275563)"><path d="M0.25 -0.92 C-8.89 -6.97, -45.08 -31.66, -54.13 -37.49 M-1.08 1.22 C-10.36 -4.57, -45.74 -29.73, -54.63 -36.21" stroke="#000000" stroke-width="1" fill="none"></path></g></g><g transform="translate(433.5 501) rotate(0 63 13)"><text x="0" y="18" font-family="Virgil, Segoe UI Emoji" font-size="20px" fill="#000000" text-anchor="start" style="white-space: pre;" direction="ltr">Cached Tree</text></g><g stroke-linecap="round"><g transform="translate(244 240) rotate(0 70.91240398563446 -0.005174352154142525)"><path d="M-0.11 -0.05 C23.72 0.08, 119.27 -0.06, 143.46 0.06 M-1.63 -1.11 C21.95 -0.81, 117.83 0.62, 142.22 1.1" stroke="#000000" stroke-width="1" fill="none"></path></g><g transform="translate(244 240) rotate(0 70.91240398563446 -0.005174352154142525)"><path d="M113.78 9.98 C121.98 9.23, 132.59 4.04, 141.83 2.63 M113.56 11.31 C122.63 8.71, 131.62 4.54, 141.68 0.41" stroke="#000000" stroke-width="1" fill="none"></path></g><g transform="translate(244 240) rotate(0 70.91240398563446 -0.005174352154142525)"><path d="M114.13 -10.54 C122.1 -4.32, 132.59 -2.54, 141.83 2.63 M113.9 -9.21 C122.78 -5.57, 131.66 -3.51, 141.68 0.41" stroke="#000000" stroke-width="1" fill="none"></path></g></g><g transform="translate(250 212) rotate(0 52.5 13)"><text x="0" y="18" font-family="Virgil, Segoe UI Emoji" font-size="20px" fill="#000000" text-anchor="start" style="white-space: pre;" direction="ltr">Load Tree</text></g><g stroke-linecap="round"><g transform="translate(242 292) rotate(0 69.84589031765239 -0.9553359050303811)"><path d="M0.64 -0.29 C23.66 -0.53, 114.87 -1.6, 137.99 -1.62 M-0.48 -1.49 C22.91 -1.55, 116.96 -0.25, 140.17 -0.41" stroke="#000000" stroke-width="1" fill="none"></path></g><g transform="translate(242 292) rotate(0 69.84589031765239 -0.9553359050303811)"><path d="M111.44 8.03 C119.14 7.24, 129.36 2.55, 139.33 -0.1 M112.33 10 C120.35 6.8, 128.89 3.6, 140.27 -0.74" stroke="#000000" stroke-width="1" fill="none"></path></g><g transform="translate(242 292) rotate(0 69.84589031765239 -0.9553359050303811)"><path d="M111.54 -12.49 C119.17 -7.31, 129.37 -6.02, 139.33 -0.1 M112.43 -10.52 C120.53 -7.27, 129.04 -4.01, 140.27 -0.74" stroke="#000000" stroke-width="1" fill="none"></path></g></g><g transform="translate(247 296) rotate(0 52 13)"><text x="0" y="18" font-family="Virgil, Segoe UI Emoji" font-size="20px" fill="#000000" text-anchor="start" style="white-space: pre;" direction="ltr">Save Tree</text></g><g stroke-linecap="round" transform="translate(26 10) rotate(0 96 42)"><path d="M-0.99 -1.48 C67.12 -1.82, 137.12 0.68, 190.72 -0.09 M0.54 0.26 C49.32 -2.07, 99.14 -1.15, 191.11 0.89 M193.17 -1.59 C192.62 29.12, 191.61 60.82, 191.93 83.79 M191.49 0.47 C191.68 25.89, 191.95 52.7, 192.34 84.06 M193.28 84.27 C123.95 83.27, 50.65 86.47, -0.63 85.91 M192.25 84.16 C115.93 85.12, 41.63 86.56, -0.05 84.98 M0.79 84.37 C0.56 54.84, -0.09 28.17, -0.01 -0.18 M0.73 85 C-0.89 64.52, -0.3 44.85, 0.62 -0.1" stroke="#000000" stroke-width="1" fill="none"></path></g><g transform="translate(31 39) rotate(0 91 13)"><text x="91" y="18" font-family="Virgil, Segoe UI Emoji" font-size="20px" fill="#000000" text-anchor="middle" style="white-space: pre;" direction="ltr">Client</text></g><g stroke-linecap="round"><g transform="translate(119 108) rotate(0 0.2914879307895717 52.283864213451736)"><path d="M-0.64 -0.68 C-0.41 16.56, 0.35 86.23, 0.74 103.81 M1.22 1.57 C1.33 18.98, -0.36 88.37, -0.34 105.25" stroke="#000000" stroke-width="1" fill="none"></path></g><g transform="translate(119 108) rotate(0 0.2914879307895717 52.283864213451736)"><path d="M-11.37 76.5 C-8.04 85.1, -3.98 89.03, 0.71 106.69 M-9.5 76.96 C-7.4 84.09, -4.4 92.67, -1.09 105.36" stroke="#000000" stroke-width="1" fill="none"></path></g><g transform="translate(119 108) rotate(0 0.2914879307895717 52.283864213451736)"><path d="M9.15 76.77 C7.45 85.2, 6.49 89.06, 0.71 106.69 M11.02 77.23 C7.28 84.3, 4.45 92.8, -1.09 105.36" stroke="#000000" stroke-width="1" fill="none"></path></g></g><g transform="translate(131 140) rotate(0 62 13)"><text x="0" y="18" font-family="Virgil, Segoe UI Emoji" font-size="20px" fill="#000000" text-anchor="start" style="white-space: pre;" direction="ltr">HTTP/CRUD</text></g><g transform="translate(406 154) rotate(0 85 25.5)"><text x="0" y="18.5" font-family="Virgil, Segoe UI Emoji" font-size="20px" fill="#000000" text-anchor="start" style="white-space: pre;" direction="ltr">1. Rapid writing</text><text x="0" y="44" font-family="Virgil, Segoe UI Emoji" font-size="20px" fill="#000000" text-anchor="start" style="white-space: pre;" direction="ltr">2. Rarely reading</text></g><g transform="translate(27 665) rotate(0 80 13)"><text x="0" y="18" font-family="Virgil, Segoe UI Emoji" font-size="20px" fill="#000000" text-anchor="start" style="white-space: pre;" direction="ltr">Map[string]Node</text></g><g stroke-linecap="round"><g transform="translate(106 545) rotate(0 -0.2656966545246746 48.02678944041952)"><path d="M0.02 0.9 C-0.26 16.44, -1.27 78.71, -1.19 94.13 M-1.42 0.32 C-1.4 16.01, 0.66 80.06, 0.89 95.73" stroke="#000000" stroke-width="1" fill="none"></path></g><g transform="translate(106 545) rotate(0 -0.2656966545246746 48.02678944041952)"><path d="M-8.56 65.81 C-5.91 78.12, -3.45 86.85, 1.95 96.98 M-10.13 66.85 C-6.9 76.77, -2.4 86.27, 1.09 96.06" stroke="#000000" stroke-width="1" fill="none"></path></g><g transform="translate(106 545) rotate(0 -0.2656966545246746 48.02678944041952)"><path d="M11.96 65.31 C7.62 77.8, 3.09 86.7, 1.95 96.98 M10.39 66.35 C7.14 76.36, 5.16 86.02, 1.09 96.06" stroke="#000000" stroke-width="1" fill="none"></path></g></g><g transform="translate(124 572) rotate(0 75.5 13)"><text x="0" y="18" font-family="Virgil, Segoe UI Emoji" font-size="20px" fill="#000000" text-anchor="start" style="white-space: pre;" direction="ltr">Implemented as</text></g><g stroke-linecap="round"><g transform="translate(488.0692990633995 541) rotate(0 -0.1482023560255925 47.10410491313786)"><path d="M-0.99 0 C-0.82 15.81, -0.07 79.71, 0.18 95.26 M0.69 -1.05 C0.82 14.43, -0.43 77.86, -0.51 93.73" stroke="#000000" stroke-width="1" fill="none"></path></g><g transform="translate(488.0692990633995 541) rotate(0 -0.1482023560255925 47.10410491313786)"><path d="M-10.41 66.22 C-6.15 73.46, -7.18 79.07, -0.03 95.4 M-11.08 65.05 C-6.75 73.94, -3.87 84.25, -0.99 94.22" stroke="#000000" stroke-width="1" fill="none"></path></g><g transform="translate(488.0692990633995 541) rotate(0 -0.1482023560255925 47.10410491313786)"><path d="M10.11 66.49 C9.62 73.49, 3.85 79.04, -0.03 95.4 M9.44 65.31 C6.88 74.28, 2.88 84.5, -0.99 94.22" stroke="#000000" stroke-width="1" fill="none"></path></g></g><g transform="translate(516.5 567) rotate(0 75.5 13)"><text x="0" y="18" font-family="Virgil, Segoe UI Emoji" font-size="20px" fill="#000000" text-anchor="start" style="white-space: pre;" direction="ltr">Implemented as</text></g><g transform="translate(337 650) rotate(0 232 38.5)"><text x="0" y="17.666666666666668" font-family="Virgil, Segoe UI Emoji" font-size="20px" fill="#000000" text-anchor="start" style="white-space: pre;" direction="ltr">Key-Value storage, where:</text><text x="0" y="43.333333333333336" font-family="Virgil, Segoe UI Emoji" font-size="20px" fill="#000000" text-anchor="start" style="white-space: pre;" direction="ltr">Key - string</text><text x="0" y="69" font-family="Virgil, Segoe UI Emoji" font-size="20px" fill="#000000" text-anchor="start" style="white-space: pre;" direction="ltr">Value - bson (go object encoded in binary) tree</text></g></svg>